<?xml version="1.0" encoding="UTF-8" standalone="no"?>
<svg
   width="16"
   height="17"
   fill="none"
   version="1.1"
   id="svg854"
   sodipodi:docname="arrow-right (1).svg"
   inkscape:version="1.1.2 (0a00cf5339, 2022-02-04)"
   xmlns:inkscape="http://www.inkscape.org/namespaces/inkscape"
   xmlns:sodipodi="http://sodipodi.sourceforge.net/DTD/sodipodi-0.dtd"
   xmlns="http://www.w3.org/2000/svg"
   xmlns:svg="http://www.w3.org/2000/svg">
  <defs
     id="defs858" />
  <sodipodi:namedview
     id="namedview856"
     pagecolor="#ffffff"
     bordercolor="#666666"
     borderopacity="1.0"
     inkscape:pageshadow="2"
     inkscape:pageopacity="0.0"
     inkscape:pagecheckerboard="0"
     showgrid="false"
     inkscape:zoom="49.058824"
     inkscape:cx="8.0005995"
     inkscape:cy="5.2386091"
     inkscape:window-width="1916"
     inkscape:window-height="1042"
     inkscape:window-x="1920"
     inkscape:window-y="0"
     inkscape:window-maximized="1"
     inkscape:current-layer="svg854" />
  <g
     stroke="#fff"
     stroke-linecap="round"
     stroke-linejoin="round"
     stroke-miterlimit="10"
     stroke-opacity=".25"
     id="g852">
    <path
       style="color:#000000;fill:#ffffff;fill-opacity:0.25;stroke-miterlimit:10;-inkscape-stroke:none"
       d="m 6.2832031,3.9921875 a 0.5,0.5 0 0 0 -0.5,0.5 0.5,0.5 0 0 0 0.5,0.5 H 10.800781 L 3.640625,12.152344 a 0.5,0.5 0 0 0 0,0.707031 0.5,0.5 0 0 0 0.7070312,0 L 11.507813,5.6992187 v 4.5156253 a 0.5,0.5 0 0 0 0.5,0.5 0.5,0.5 0 0 0 0.5,-0.5 V 4.4921875 A 0.50005,0.50005 0 0 0 12.373047,4.3574219 0.5,0.5 0 0 0 12.28125,4.21875 a 0.5,0.5 0 0 0 -0.04687,0 0.50005,0.50005 0 0 0 -0.226562,-0.2265625 z"
       id="path850" />
  </g>
</svg>
