<?xml version="1.0" encoding="UTF-8" standalone="no"?>
<svg
   width="24"
   height="24"
   viewBox="0 0 24 24"
   fill="none"
   version="1.1"
   id="svg6"
   sodipodi:docname="call.svg"
   inkscape:version="1.1.2 (0a00cf5339, 2022-02-04)"
   xmlns:inkscape="http://www.inkscape.org/namespaces/inkscape"
   xmlns:sodipodi="http://sodipodi.sourceforge.net/DTD/sodipodi-0.dtd"
   xmlns="http://www.w3.org/2000/svg"
   xmlns:svg="http://www.w3.org/2000/svg">
  <defs
     id="defs10" />
  <sodipodi:namedview
     id="namedview8"
     pagecolor="#ffffff"
     bordercolor="#666666"
     borderopacity="1.0"
     inkscape:pageshadow="2"
     inkscape:pageopacity="0.0"
     inkscape:pagecheckerboard="0"
     showgrid="false"
     inkscape:zoom="34.958333"
     inkscape:cx="12"
     inkscape:cy="11.985697"
     inkscape:window-width="1916"
     inkscape:window-height="1042"
     inkscape:window-x="1920"
     inkscape:window-y="0"
     inkscape:window-maximized="1"
     inkscape:current-layer="svg6" />
  <g
     id="vuesax/linear/call">
    <g
       id="call">
      <g
         id="call_2">
        <path
           style="color:#000000;fill:#173d33;stroke-miterlimit:10;-inkscape-stroke:none"
           d="m 5.5898437,1.25 c -0.946358,0 -1.8518566,0.4193379 -2.5976562,1.1503906 -0.5993331,0.5667963 -1.0473783,1.2198441 -1.328125,1.9316406 -2.371e-4,5.928e-4 2.369e-4,0.00136 0,0.00195 C 1.3871883,5.0268637 1.25,5.7714847 1.25,6.5390625 c 0,1.1553835 0.2676441,2.3473247 0.7792969,3.5625005 v 0.002 c 0.5057562,1.190634 1.1940112,2.377144 2.0410156,3.554687 l 0.00195,0.002 0.00195,0.002 c 0.8530131,1.171609 1.8077461,2.289686 2.8632813,3.355469 l 0.00195,0.002 0.00195,0.0039 c 1.0657831,1.055536 2.1865499,2.010669 3.3671878,2.873047 1.181081,0.85991 2.380342,1.549933 3.58789,2.064453 1.225976,0.522373 2.415089,0.789063 3.552735,0.789063 0.79219,0 1.5445,-0.149515 2.236328,-0.4375 h 0.002 c 0.717924,-0.294976 1.35571,-0.76027 1.908203,-1.369141 0.340769,-0.37602 0.603908,-0.782081 0.802734,-1.203125 0.215934,-0.45727 0.322266,-0.939045 0.322266,-1.410156 0,-0.387142 -0.08923,-0.744561 -0.214844,-1.058594 l -0.0039,-0.01172 -0.0059,-0.01172 c -0.167999,-0.381816 -0.454606,-0.706543 -0.802735,-0.949219 l -0.002,-0.002 -3.3125,-2.353516 -0.0078,-0.0039 c -0.279856,-0.190302 -0.553185,-0.34642 -0.837891,-0.46289 -0.295354,-0.120827 -0.597315,-0.1875 -0.892578,-0.1875 -0.383056,0 -0.758926,0.122917 -1.080078,0.314453 -0.317813,0.170139 -0.60284,0.397762 -0.880859,0.675781 l -0.6875,0.679687 c -0.01144,-0.0053 -0.02367,-0.0096 -0.03711,-0.01563 -0.266517,-0.141702 -0.660138,-0.411342 -1.15039,-0.826171 v 0.002 c -0.506403,-0.429965 -1.009742,-0.904575 -1.539063,-1.423828 l -0.0039,-0.0039 c -0.0021,-0.0021 -0.0038,-0.0038 -0.0059,-0.0059 -0.500374,-0.510513 -0.964732,-1.023836 -1.4023434,-1.529297 l -0.00586,-0.0078 C 9.4367475,10.66192 9.1562356,10.265135 9.0175781,10.013672 c -0.00416,-0.0098 -0.00809,-0.023005 -0.011719,-0.03125 l 0.6953125,-0.7226563 -0.011719,0.00977 c 0.2733177,-0.2733177 0.5024879,-0.5558642 0.6757809,-0.859375 0.199335,-0.3309122 0.314454,-0.7075386 0.314454,-1.0898438 0,-0.3209181 -0.0799,-0.6208608 -0.201172,-0.9042969 C 10.36236,6.1346817 10.203042,5.8569807 9.9980469,5.5722656 L 7.6835937,2.3085938 C 7.4265165,1.9392456 7.0806299,1.670358 6.7167969,1.5019531 6.3598539,1.3320617 5.974306,1.25 5.5898437,1.25 Z m 0,1.5 c 0.172857,0 0.3453552,0.037802 0.4863282,0.1054688 l 0.00391,0.00391 0.00586,0.00195 c 0.1537022,0.070939 0.2651694,0.157328 0.3671875,0.3046875 l 0.00195,0.00391 2.3242188,3.2753906 0.00195,0.00195 c 0.1526009,0.2119458 0.250924,0.3915816 0.3144531,0.546875 L 9.0976563,7 l 0.00391,0.00586 c 0.058305,0.1360456 0.078125,0.2560321 0.078125,0.3144531 0,0.094167 -0.022362,0.1934056 -0.099609,0.3203125 l -0.00781,0.00977 -0.00586,0.00977 c -0.08594,0.1520484 -0.2343287,0.3456569 -0.4375,0.5488282 L 8.625,8.2148438 7.8691406,9 C 7.630576,9.2385646 7.4902344,9.6134378 7.4902344,9.9296875 c 0,0.1424995 0.022034,0.2893095 0.052734,0.4121095 l 0.00977,0.04102 0.015625,0.04101 c 0.04443,0.118479 0.07403,0.184979 0.070312,0.173828 l 0.021484,0.0625 0.03125,0.05859 c 0.2221917,0.407351 0.5561359,0.863217 1.0156251,1.40625 l 0.00391,0.002 0.00195,0.0039 c 0.4576794,0.528874 0.9489568,1.071511 1.4824224,1.615235 l 0.0039,0.0039 0.0059,0.0059 c 0.546856,0.536729 1.078643,1.038655 1.628906,1.50586 h 0.002 c 0.54731,0.463108 1.010378,0.792833 1.423828,1.011718 l 0.03516,0.01758 0.03711,0.01563 c 0.002,7.9e-4 0.06834,0.03208 0.16211,0.07227 l 0.01563,0.0078 0.01758,0.0059 c 0.182611,0.06848 0.366163,0.08789 0.511719,0.08789 0.34647,0 0.718912,-0.168131 0.941406,-0.390625 l 0.757812,-0.748047 0.002,-0.002 c 0.214645,-0.214645 0.405253,-0.356987 0.53711,-0.425781 l 0.02148,-0.0098 0.02148,-0.01367 c 0.135155,-0.08227 0.210313,-0.101563 0.320313,-0.101562 0.08474,0 0.181526,0.01504 0.326172,0.07422 0.155293,0.06353 0.340403,0.166709 0.560547,0.316407 l 3.302734,2.343749 0.0039,0.0039 c 0.164957,0.1142 0.232548,0.204321 0.283203,0.316406 0.06949,0.177573 0.103516,0.318892 0.103516,0.486328 0,0.248889 -0.05562,0.506803 -0.179687,0.769531 -0.141174,0.298956 -0.31741,0.571959 -0.556641,0.835938 -0.426491,0.47001 -0.868683,0.785129 -1.369141,0.990234 l -0.002,0.002 h -0.002 C 18.603636,21.139273 18.056361,21.25 17.449219,21.25 16.546867,21.25 15.558397,21.037705 14.484375,20.580078 13.391926,20.1146 12.290323,19.483682 11.191406,18.683594 10.072046,17.865974 9.0122617,16.961494 7.9980469,15.957031 6.9962553,14.945023 6.0942968,13.886995 5.2890625,12.78125 l -0.00195,-0.002 C 4.4954674,11.678416 3.8659592,10.587414 3.4121094,9.5195313 2.9637631,8.4547088 2.75,7.463677 2.75,6.5390625 2.75,5.9472984 2.8539933,5.3952901 3.0566406,4.8886719 v -0.00195 l 0.00195,-0.00195 C 3.2570989,4.3802317 3.5685552,3.917305 4.0253906,3.4863281 l 0.00586,-0.00586 0.00586,-0.00586 C 4.5699238,2.9501202 5.0593037,2.75 5.5898437,2.75 Z"
           id="Vector" />
      </g>
    </g>
  </g>
</svg>
