<?xml version="1.0" encoding="UTF-8" standalone="no"?>
<svg
   width="24"
   height="24"
   viewBox="0 0 24 24"
   fill="none"
   version="1.1"
   id="svg6"
   sodipodi:docname="facebook.svg"
   inkscape:version="1.1.2 (0a00cf5339, 2022-02-04)"
   xmlns:inkscape="http://www.inkscape.org/namespaces/inkscape"
   xmlns:sodipodi="http://sodipodi.sourceforge.net/DTD/sodipodi-0.dtd"
   xmlns="http://www.w3.org/2000/svg"
   xmlns:svg="http://www.w3.org/2000/svg">
  <defs
     id="defs10" />
  <sodipodi:namedview
     id="namedview8"
     pagecolor="#ffffff"
     bordercolor="#666666"
     borderopacity="1.0"
     inkscape:pageshadow="2"
     inkscape:pageopacity="0.0"
     inkscape:pagecheckerboard="0"
     showgrid="false"
     inkscape:zoom="34.958333"
     inkscape:cx="12"
     inkscape:cy="11.985697"
     inkscape:window-width="1916"
     inkscape:window-height="1042"
     inkscape:window-x="1920"
     inkscape:window-y="0"
     inkscape:window-maximized="1"
     inkscape:current-layer="svg6" />
  <g
     id="vuesax/linear/facebook">
    <g
       id="facebook">
      <path
         id="Vector"
         d="M14 9.3V12.2H16.6C16.8 12.2 16.9 12.4 16.9 12.6L16.5 14.5C16.5 14.6 16.3 14.7 16.2 14.7H14V22H11V14.8H9.3C9.1 14.8 9 14.7 9 14.5V12.6C9 12.4 9.1 12.3 9.3 12.3H11V9C11 7.3 12.3 6 14 6H16.7C16.9 6 17 6.1 17 6.3V8.7C17 8.9 16.9 9 16.7 9H14.3C14.1 9 14 9.1 14 9.3Z"
         fill="#173D33" />
      <path
         style="color:#000000;fill:#173d33;stroke-linecap:round;stroke-linejoin:round;-inkscape-stroke:none"
         d="M 9,1.25 C 6.4000026,1.25 4.4151672,1.7723328 3.09375,3.09375 1.7723328,4.4151672 1.25,6.4000026 1.25,9 v 6 c 0,2.599997 0.5223328,4.584833 1.84375,5.90625 C 4.4151672,22.227667 6.4000026,22.75 9,22.75 h 6 c 2.599997,0 4.584833,-0.522333 5.90625,-1.84375 C 22.227667,19.584833 22.75,17.599997 22.75,15 V 9 C 22.75,6.4000026 22.227667,4.4151672 20.90625,3.09375 19.584833,1.7723328 17.599997,1.25 15,1.25 Z m 0,1.5 h 6 c 2.399998,0 3.915169,0.4776695 4.84375,1.40625 C 20.772331,5.0848305 21.25,6.6000024 21.25,9 v 6 c 0,2.399998 -0.477669,3.915169 -1.40625,4.84375 C 18.915169,20.772331 17.399998,21.25 15,21.25 H 9 C 6.6000024,21.25 5.0848305,20.772331 4.15625,19.84375 3.2276695,18.915169 2.75,17.399998 2.75,15 V 9 C 2.75,6.6000024 3.2276695,5.0848305 4.15625,4.15625 5.0848305,3.2276695 6.6000024,2.75 9,2.75 Z"
         id="Vector_2" />
    </g>
  </g>
</svg>
