<?xml version="1.0" encoding="UTF-8" standalone="no"?>
<svg
   width="24"
   height="24"
   viewBox="0 0 24 24"
   fill="none"
   version="1.1"
   id="svg7"
   sodipodi:docname="instagram.svg"
   inkscape:version="1.1.2 (0a00cf5339, 2022-02-04)"
   xmlns:inkscape="http://www.inkscape.org/namespaces/inkscape"
   xmlns:sodipodi="http://sodipodi.sourceforge.net/DTD/sodipodi-0.dtd"
   xmlns="http://www.w3.org/2000/svg"
   xmlns:svg="http://www.w3.org/2000/svg">
  <defs
     id="defs11" />
  <sodipodi:namedview
     id="namedview9"
     pagecolor="#ffffff"
     bordercolor="#666666"
     borderopacity="1.0"
     inkscape:pageshadow="2"
     inkscape:pageopacity="0.0"
     inkscape:pagecheckerboard="0"
     showgrid="false"
     inkscape:zoom="34.958333"
     inkscape:cx="12"
     inkscape:cy="11.985697"
     inkscape:window-width="1916"
     inkscape:window-height="1042"
     inkscape:window-x="1920"
     inkscape:window-y="0"
     inkscape:window-maximized="1"
     inkscape:current-layer="svg7" />
  <g
     id="vuesax/linear/instagram">
    <g
       id="instagram">
      <path
         style="color:#000000;fill:#173d33;stroke-linecap:round;stroke-linejoin:round;-inkscape-stroke:none"
         d="M 9,1.25 C 6.4000026,1.25 4.4151672,1.7723328 3.09375,3.09375 1.7723328,4.4151672 1.25,6.4000026 1.25,9 v 6 c 0,2.599997 0.5223328,4.584833 1.84375,5.90625 C 4.4151672,22.227667 6.4000026,22.75 9,22.75 h 6 c 2.599997,0 4.584833,-0.522333 5.90625,-1.84375 C 22.227667,19.584833 22.75,17.599997 22.75,15 V 9 C 22.75,6.4000026 22.227667,4.4151672 20.90625,3.09375 19.584833,1.7723328 17.599997,1.25 15,1.25 Z m 0,1.5 h 6 c 2.399998,0 3.915169,0.4776695 4.84375,1.40625 C 20.772331,5.0848305 21.25,6.6000024 21.25,9 v 6 c 0,2.399998 -0.477669,3.915169 -1.40625,4.84375 C 18.915169,20.772331 17.399998,21.25 15,21.25 H 9 C 6.6000024,21.25 5.0848305,20.772331 4.15625,19.84375 3.2276695,18.915169 2.75,17.399998 2.75,15 V 9 C 2.75,6.6000024 3.2276695,5.0848305 4.15625,4.15625 5.0848305,3.2276695 6.6000024,2.75 9,2.75 Z"
         id="Vector" />
      <path
         style="color:#000000;fill:#173d33;stroke-linecap:round;stroke-linejoin:round;-inkscape-stroke:none"
         d="m 12,7.75 c -2.3383262,0 -4.25,1.9116738 -4.25,4.25 0,2.338326 1.9116738,4.25 4.25,4.25 2.338326,0 4.25,-1.911674 4.25,-4.25 0,-2.3383262 -1.911674,-4.25 -4.25,-4.25 z m 0,1.5 c 1.52767,0 2.75,1.22233 2.75,2.75 0,1.52767 -1.22233,2.75 -2.75,2.75 -1.52767,0 -2.75,-1.22233 -2.75,-2.75 0,-1.52767 1.22233,-2.75 2.75,-2.75 z"
         id="Vector_2" />
      <path
         style="color:#000000;fill:#173d33;stroke-linecap:round;stroke-linejoin:round;-inkscape-stroke:none"
         d="m 17.636719,6 a 1,1 0 0 0 -1,1 1,1 0 0 0 1,1 h 0.01172 a 1,1 0 0 0 1,-1 1,1 0 0 0 -1,-1 z"
         id="Vector_3" />
    </g>
  </g>
</svg>
