<?xml version="1.0" encoding="UTF-8" standalone="no"?>
<svg
   width="24"
   height="24"
   viewBox="0 0 24 24"
   fill="none"
   version="1.1"
   id="svg7"
   sodipodi:docname="map.svg"
   inkscape:version="1.1.2 (0a00cf5339, 2022-02-04)"
   xmlns:inkscape="http://www.inkscape.org/namespaces/inkscape"
   xmlns:sodipodi="http://sodipodi.sourceforge.net/DTD/sodipodi-0.dtd"
   xmlns="http://www.w3.org/2000/svg"
   xmlns:svg="http://www.w3.org/2000/svg">
  <defs
     id="defs11" />
  <sodipodi:namedview
     id="namedview9"
     pagecolor="#ffffff"
     bordercolor="#666666"
     borderopacity="1.0"
     inkscape:pageshadow="2"
     inkscape:pageopacity="0.0"
     inkscape:pagecheckerboard="0"
     showgrid="false"
     inkscape:zoom="34.958333"
     inkscape:cx="12"
     inkscape:cy="11.985697"
     inkscape:window-width="1916"
     inkscape:window-height="1042"
     inkscape:window-x="1920"
     inkscape:window-y="0"
     inkscape:window-maximized="1"
     inkscape:current-layer="svg7" />
  <g
     id="vuesax/linear/map">
    <g
       id="map">
      <path
         style="color:#000000;fill:#173d33;stroke-linecap:round;stroke-linejoin:round;-inkscape-stroke:none"
         d="M 8.546875,2.5566406 C 8.1037029,2.5678181 7.6639614,2.688132 7.2597656,2.9179688 a 0.750075,0.750075 0 0 0 -0.00195,0.00195 L 2.9277344,5.3984375 C 2.0621804,5.8930397 1.5410156,6.792155 1.5410156,7.7792969 v 9.7304691 c 0,1.12763 0.4268954,2.104918 1.2519532,2.583984 0.8250577,0.479066 1.8846969,0.365298 2.8593749,-0.193359 v 0.002 L 8,18.5625 c 0.2180476,-0.123988 0.9587057,-0.147732 1.1796875,-0.03516 a 0.750075,0.750075 0 0 0 0.00391,0.0039 l 5.2500002,2.628906 a 0.750075,0.750075 0 0 0 0.0059,0.0039 c 0.828318,0.406345 1.783406,0.387408 2.591797,-0.07227 a 0.750075,0.750075 0 0 0 0.002,-0.002 l 4.330078,-2.478516 a 0.750075,0.750075 0 0 0 0.0039,-0.0039 C 22.217969,18.112422 22.75,17.220077 22.75,16.220703 V 6.4902344 C 22.75,5.3626039 22.321152,4.3853158 21.496094,3.90625 20.671036,3.4271842 19.611397,3.5409525 18.636719,4.0996094 L 16.289062,5.4375 c -0.218047,0.1239879 -0.956752,0.1477319 -1.177734,0.035156 a 0.750075,0.750075 0 0 0 -0.0059,-0.00391 L 9.8554688,2.8496094 a 0.750075,0.750075 0 0 0 -0.00586,-0.00391 C 9.4354505,2.6425309 8.9900471,2.5454632 8.546875,2.5566406 Z m 0.6425781,1.6367188 5.2402349,2.6152343 c 0.0012,6.043e-4 0.0027,-6.024e-4 0.0039,0 l 0.002,0.00195 c 0.837654,0.4243328 1.79558,0.3866123 2.595703,-0.068359 l 2.349609,-1.3398438 a 0.750075,0.750075 0 0 0 0.002,-0.00195 C 20.048133,5.0190485 20.484199,5.0521914 20.744141,5.203125 21.004082,5.3540586 21.25,5.7178667 21.25,6.4902344 v 9.7304686 c 0,0.280032 -0.385492,0.942957 -0.634766,1.089844 l -4.326172,2.476562 c -0.211607,0.120326 -0.957771,0.142952 -1.189453,0.0293 l -5.2382809,-2.625 C 9.022311,16.763982 8.061717,16.801801 7.2597656,17.257812 a 0.750075,0.750075 0 0 0 -0.00195,0 l -2.3496094,1.339844 a 0.750075,0.750075 0 0 0 -0.00195,0.002 C 4.2409297,18.980952 3.8068161,18.947809 3.546875,18.796875 3.2869339,18.645941 3.0410156,18.282133 3.0410156,17.509766 V 7.7792969 c 0,-0.2728569 0.3764145,-0.9327279 0.6308594,-1.078125 L 8,4.2226562 C 8.2116075,4.1023304 8.9577719,4.0797044 9.1894531,4.1933594 Z"
         id="Vector" />
      <path
         style="color:#000000;fill:#173d33;stroke-linecap:round;stroke-linejoin:round;-inkscape-stroke:none"
         d="m 8.5605469,3.25 a 0.75,0.75 0 0 0 -0.75,0.75 v 13 a 0.75,0.75 0 0 0 0.75,0.75 0.75,0.75 0 0 0 0.75,-0.75 V 4 a 0.75,0.75 0 0 0 -0.75,-0.75 z"
         id="Vector_2" />
      <path
         style="color:#000000;fill:#173d33;stroke-linecap:round;stroke-linejoin:round;-inkscape-stroke:none"
         d="m 15.730469,5.8691406 a 0.75,0.75 0 0 0 -0.75,0.75 V 20 a 0.75,0.75 0 0 0 0.75,0.75 0.75,0.75 0 0 0 0.75,-0.75 V 6.6191406 a 0.75,0.75 0 0 0 -0.75,-0.75 z"
         id="Vector_3" />
    </g>
  </g>
</svg>
