<?xml version="1.0" encoding="UTF-8" standalone="no"?>
<svg
   width="24"
   height="24"
   viewBox="0 0 24 24"
   fill="none"
   version="1.1"
   id="svg6"
   sodipodi:docname="sms.svg"
   inkscape:version="1.1.2 (0a00cf5339, 2022-02-04)"
   xmlns:inkscape="http://www.inkscape.org/namespaces/inkscape"
   xmlns:sodipodi="http://sodipodi.sourceforge.net/DTD/sodipodi-0.dtd"
   xmlns="http://www.w3.org/2000/svg"
   xmlns:svg="http://www.w3.org/2000/svg">
  <defs
     id="defs10" />
  <sodipodi:namedview
     id="namedview8"
     pagecolor="#ffffff"
     bordercolor="#666666"
     borderopacity="1.0"
     inkscape:pageshadow="2"
     inkscape:pageopacity="0.0"
     inkscape:pagecheckerboard="0"
     showgrid="false"
     inkscape:zoom="34.958333"
     inkscape:cx="12"
     inkscape:cy="11.985697"
     inkscape:window-width="1916"
     inkscape:window-height="1042"
     inkscape:window-x="1920"
     inkscape:window-y="0"
     inkscape:window-maximized="1"
     inkscape:current-layer="svg6" />
  <g
     id="vuesax/linear/sms">
    <g
       id="sms">
      <path
         style="color:#000000;fill:#173d33;stroke-linecap:round;stroke-linejoin:round;stroke-miterlimit:10;-inkscape-stroke:none"
         d="M 7,2.75 C 5.3750016,2.75 3.9169068,3.1621189 2.8652344,4.1386719 1.8135619,5.1152249 1.25,6.6071448 1.25,8.5 v 7 c 0,1.892855 0.5635619,3.384775 1.6152344,4.361328 C 3.9169068,20.837881 5.3750016,21.25 7,21.25 h 10 c 1.624998,0 3.083093,-0.412119 4.134766,-1.388672 C 22.186438,18.884775 22.75,17.392855 22.75,15.5 v -7 C 22.75,6.6071447 22.186438,5.1152249 21.134766,4.1386719 20.083093,3.1621189 18.624998,2.75 17,2.75 Z m 0,1.5 h 10 c 1.374999,0 2.416909,0.3378827 3.115234,0.9863281 C 20.81356,5.8847735 21.25,6.8928587 21.25,8.5 v 7 c 0,1.607141 -0.43644,2.615226 -1.134766,3.263672 C 19.416909,19.412117 18.374999,19.75 17,19.75 H 7 C 5.6250014,19.75 4.5830914,19.412117 3.8847656,18.763672 3.1864398,18.115226 2.75,17.107141 2.75,15.5 v -7 C 2.75,6.8928587 3.1864398,5.8847735 3.8847656,5.2363281 4.5830914,4.5878827 5.6250014,4.25 7,4.25 Z"
         id="Vector" />
      <path
         style="color:#000000;fill:#173d33;stroke-linecap:round;stroke-linejoin:round;stroke-miterlimit:10;-inkscape-stroke:none"
         d="M 6.9179687,8.2539063 A 0.75,0.75 0 0 0 6.4140625,8.53125 0.75,0.75 0 0 0 6.53125,9.5859375 l 3.1191406,2.5000005 a 0.750075,0.750075 0 0 0 0.00195,0 c 1.3427482,1.068984 3.3427982,1.068984 4.6855472,0 L 17.46875,9.5859375 A 0.75,0.75 0 0 0 17.585937,8.53125 0.75,0.75 0 0 0 16.53125,8.4140625 l -3.128906,2.5000005 c -0.716794,0.570651 -2.094864,0.569925 -2.8125,0 h -0.002 L 7.46875,8.4140625 A 0.75,0.75 0 0 0 6.9179687,8.2539063 Z"
         id="Vector_2" />
    </g>
  </g>
</svg>
