<!-- Generated by IcoMoon.io -->
<svg version="1.1" xmlns="http://www.w3.org/2000/svg" width="32" height="32" viewBox="0 0 32 32">
<title>arrow-right</title>
<path d="M18.769 7.434c-0.121 0.121-0.195 0.287-0.195 0.471s0.075 0.351 0.195 0.471l7.622 7.622-7.622 7.622c-0.121 0.121-0.195 0.287-0.195 0.471s0.075 0.351 0.195 0.471v0c0.121 0.121 0.287 0.195 0.471 0.195s0.351-0.075 0.471-0.195l8.094-8.092c0.121-0.121 0.195-0.287 0.195-0.471s-0.075-0.351-0.195-0.471l-8.094-8.094c-0.121-0.121-0.287-0.195-0.471-0.195s-0.351 0.075-0.471 0.195v0z"></path>
<path d="M4.668 15.332c-0.368 0-0.667 0.298-0.667 0.667v0c0 0.368 0.298 0.667 0.667 0.667v0h22.439c0.368 0 0.667-0.298 0.667-0.667v0c0-0.368-0.298-0.667-0.667-0.667v0z"></path>
</svg>
