<!-- Generated by IcoMoon.io -->
<svg version="1.1" xmlns="http://www.w3.org/2000/svg"  viewBox="0 0 32 32">
<title>call</title>
<path d="M7.453 1.667c-1.262 0-2.469 0.559-3.464 1.534-0.799 0.756-1.397 1.626-1.771 2.576-0 0.001 0 0.002 0 0.003-0.369 0.924-0.552 1.917-0.552 2.94 0 1.54 0.357 3.13 1.039 4.75v0.003c0.674 1.588 1.592 3.17 2.721 4.74l0.005 0.005c1.137 1.562 2.41 3.053 3.818 4.474l0.003 0.003 0.003 0.005c1.421 1.407 2.915 2.681 4.49 3.831 1.575 1.147 3.174 2.067 4.784 2.753 1.635 0.697 3.22 1.052 4.737 1.052 1.056 0 2.059-0.199 2.982-0.583h0.003c0.957-0.393 1.808-1.014 2.544-1.826 0.454-0.501 0.805-1.043 1.070-1.604 0.288-0.61 0.43-1.252 0.43-1.88 0-0.516-0.119-0.993-0.286-1.411l-0.005-0.016-0.008-0.016c-0.224-0.509-0.606-0.942-1.070-1.266l-0.003-0.003-4.427-3.143c-0.373-0.254-0.738-0.462-1.117-0.617-0.394-0.161-0.796-0.25-1.19-0.25-0.511 0-1.012 0.164-1.44 0.419-0.424 0.227-0.804 0.53-1.174 0.901l-0.917 0.906c-0.015-0.007-0.032-0.013-0.049-0.021-0.355-0.189-0.88-0.548-1.534-1.102v0.003c-0.675-0.573-1.346-1.206-2.052-1.898l-0.005-0.005c-0.003-0.003-0.005-0.005-0.008-0.008-0.667-0.681-1.286-1.365-1.87-2.039l-0.008-0.010c-0.548-0.649-0.922-1.178-1.107-1.513-0.006-0.013-0.011-0.031-0.016-0.042l0.927-0.964-0.016 0.013c0.364-0.364 0.67-0.741 0.901-1.146 0.266-0.441 0.419-0.943 0.419-1.453 0-0.428-0.107-0.828-0.268-1.206-0.155-0.375-0.367-0.745-0.641-1.125l-3.086-4.352c-0.343-0.492-0.804-0.851-1.289-1.076-0.476-0.227-0.99-0.336-1.503-0.336zM7.453 3.667c0.23 0 0.46 0.050 0.648 0.141l0.005 0.005 0.008 0.003c0.205 0.095 0.354 0.21 0.49 0.406l0.003 0.005 3.102 4.37c0.203 0.283 0.335 0.522 0.419 0.729l0.003 0.008 0.005 0.008c0.078 0.181 0.104 0.341 0.104 0.419 0 0.126-0.030 0.258-0.133 0.427l-0.010 0.013-0.008 0.013c-0.115 0.203-0.312 0.461-0.583 0.732l-0.005 0.008-1.008 1.047c-0.318 0.318-0.505 0.818-0.505 1.24 0 0.19 0.029 0.386 0.070 0.549l0.013 0.055 0.021 0.055c0.059 0.158 0.099 0.247 0.094 0.232l0.029 0.083 0.042 0.078c0.296 0.543 0.742 1.151 1.354 1.875l0.005 0.003 0.003 0.005c0.61 0.705 1.265 1.429 1.977 2.154l0.013 0.013c0.729 0.716 1.438 1.385 2.172 2.008h0.003c0.73 0.617 1.347 1.057 1.898 1.349l0.047 0.023 0.049 0.021c0.003 0.001 0.091 0.043 0.216 0.096l0.021 0.010 0.023 0.008c0.243 0.091 0.488 0.117 0.682 0.117 0.462 0 0.959-0.224 1.255-0.521l1.013-1c0.286-0.286 0.54-0.476 0.716-0.568l0.029-0.013 0.029-0.018c0.18-0.11 0.28-0.135 0.427-0.135 0.113 0 0.242 0.020 0.435 0.099 0.207 0.085 0.454 0.222 0.747 0.422l4.409 3.13c0.22 0.152 0.31 0.272 0.378 0.422 0.093 0.237 0.138 0.425 0.138 0.648 0 0.332-0.074 0.676-0.24 1.026-0.188 0.399-0.423 0.763-0.742 1.115-0.569 0.627-1.158 1.047-1.826 1.32l-0.003 0.003h-0.003c-0.677 0.282-1.407 0.43-2.216 0.43-1.203 0-2.521-0.283-3.953-0.893-1.457-0.621-2.925-1.462-4.391-2.529-1.492-1.090-2.906-2.296-4.258-3.635-1.336-1.349-2.538-2.76-3.612-4.234l-0.003-0.003c-1.056-1.468-1.895-2.922-2.5-4.346-0.598-1.42-0.883-2.741-0.883-3.974 0-0.789 0.139-1.525 0.409-2.201v-0.003l0.003-0.003c0.265-0.673 0.68-1.29 1.289-1.865l0.016-0.016c0.71-0.699 1.363-0.966 2.070-0.966z"></path>
</svg>
