<!-- Generated by IcoMoon.io -->
<svg version="1.1" xmlns="http://www.w3.org/2000/svg" width="32" height="32" viewBox="0 0 32 32">
<title>map</title>
<path d="M11.396 3.409c-0.591 0.015-1.177 0.175-1.716 0.482-0.001 0.001-0.002 0.002-0.003 0.003l-0 0-5.773 3.305c-1.154 0.659-1.849 1.858-1.849 3.174v12.974c0 1.503 0.569 2.807 1.669 3.445s2.513 0.487 3.813-0.258v0.003l3.13-1.787c0.291-0.165 1.278-0.197 1.573-0.047 0.002 0.002 0.003 0.003 0.005 0.005l0 0 7 3.505c-0.001-0.001 0.002 0.001 0.004 0.003l0.004 0.002c1.104 0.542 2.378 0.517 3.456-0.096 0.001-0.001 0.002-0.002 0.003-0.003l0-0 5.773-3.305c0.002-0.002 0.003-0.003 0.005-0.005l0-0c1.134-0.66 1.844-1.85 1.844-3.182v-12.974c0-1.503-0.572-2.807-1.672-3.445s-2.513-0.487-3.813 0.258l-3.13 1.784c-0.291 0.165-1.276 0.197-1.57 0.047 0.001 0.001-0.002-0.001-0.004-0.003l-0.004-0.002-7-3.492c0.001 0.001-0.002-0.001-0.004-0.003l-0.004-0.002c-0.552-0.271-1.146-0.4-1.737-0.385zM12.253 5.591l6.987 3.487c0.002 0.001 0.004-0.001 0.005 0l0.003 0.003c1.117 0.566 2.394 0.515 3.461-0.091l3.133-1.786c0.001-0.001 0.002-0.002 0.003-0.003l-0 0c0.887-0.508 1.468-0.464 1.815-0.263s0.674 0.686 0.674 1.716v12.974c0 0.373-0.514 1.257-0.846 1.453l-5.768 3.302c-0.282 0.16-1.277 0.191-1.586 0.039l-6.984-3.5c-1.119-0.57-2.399-0.519-3.469 0.089-0 0-0.001 0-0.001 0s-0.001 0-0.001 0h0l-3.133 1.786c-0.001 0.001-0.002 0.002-0.002 0.002l-0 0c-0.887 0.508-1.466 0.464-1.813 0.263s-0.674-0.686-0.674-1.716v-12.974c0-0.364 0.502-1.244 0.841-1.438l5.771-3.305c0.282-0.16 1.277-0.191 1.586-0.039z"></path>
<path d="M11.414 4.333c-0.552 0-1 0.448-1 1v0 17.333c0 0.552 0.448 1 1 1v0c0.552 0 1-0.448 1-1v0-17.333c0-0.552-0.448-1-1-1v0z"></path>
<path d="M20.974 7.826c-0.552 0-1 0.448-1 1v0 17.841c0 0.552 0.448 1 1 1v0c0.552 0 1-0.448 1-1v0-17.841c0-0.552-0.448-1-1-1v0z"></path>
</svg>
