<!-- Generated by IcoMoon.io -->
<svg version="1.1" xmlns="http://www.w3.org/2000/svg" width="32" height="32" viewBox="0 0 32 32">
<title>sms</title>
<path d="M9.333 3.667c-2.167 0-4.111 0.55-5.513 1.852s-2.154 3.291-2.154 5.815v9.333c0 2.524 0.751 4.513 2.154 5.815s3.346 1.852 5.513 1.852h13.333c2.167 0 4.111-0.549 5.513-1.852s2.154-3.291 2.154-5.815v-9.333c0-2.524-0.751-4.513-2.154-5.815s-3.346-1.852-5.513-1.852zM9.333 5.667h13.333c1.833 0 3.223 0.45 4.154 1.315s1.513 2.209 1.513 4.352v9.333c0 2.143-0.582 3.487-1.513 4.352s-2.32 1.315-4.154 1.315h-13.333c-1.833 0-3.223-0.451-4.154-1.315s-1.513-2.209-1.513-4.352v-9.333c0-2.143 0.582-3.487 1.513-4.352s2.32-1.315 4.154-1.315z"></path>
<path d="M9.224 11.005c-0.273 0.031-0.509 0.168-0.67 0.368l-0.002 0.002c-0.137 0.17-0.219 0.388-0.219 0.625 0 0.315 0.146 0.596 0.374 0.78l0.002 0.002 4.159 3.333c0 0 0.001 0 0.001 0s0.001 0 0.001 0h-0c1.79 1.425 4.457 1.425 6.247 0l4.174-3.333c0.23-0.185 0.376-0.466 0.376-0.781 0-0.237-0.083-0.456-0.221-0.627l0.002 0.002c-0.185-0.23-0.466-0.376-0.781-0.376-0.237 0-0.456 0.083-0.627 0.221l0.002-0.002-4.172 3.333c-0.956 0.761-2.793 0.76-3.75 0h-0.003l-4.159-3.333c-0.17-0.137-0.388-0.22-0.625-0.22-0.038 0-0.076 0.002-0.114 0.006l0.005-0z"></path>
</svg>
