<svg aria-hidden="true" style="position: absolute; width: 0; height: 0; overflow: hidden;" version="1.1" xmlns="http://www.w3.org/2000/svg" xmlns:xlink="http://www.w3.org/1999/xlink">
<defs>
<symbol id="icon-map" viewBox="0 0 32 32">
<path d="M11.396 3.409c-0.591 0.015-1.177 0.175-1.716 0.482-0.001 0.001-0.002 0.002-0.003 0.003l-0 0-5.773 3.305c-1.154 0.659-1.849 1.858-1.849 3.174v12.974c0 1.503 0.569 2.807 1.669 3.445s2.513 0.487 3.813-0.258v0.003l3.13-1.787c0.291-0.165 1.278-0.197 1.573-0.047 0.002 0.002 0.003 0.003 0.005 0.005l0 0 7 3.505c-0.001-0.001 0.002 0.001 0.004 0.003l0.004 0.002c1.104 0.542 2.378 0.517 3.456-0.096 0.001-0.001 0.002-0.002 0.003-0.003l0-0 5.773-3.305c0.002-0.002 0.003-0.003 0.005-0.005l0-0c1.134-0.66 1.844-1.85 1.844-3.182v-12.974c0-1.503-0.572-2.807-1.672-3.445s-2.513-0.487-3.813 0.258l-3.13 1.784c-0.291 0.165-1.276 0.197-1.57 0.047 0.001 0.001-0.002-0.001-0.004-0.003l-0.004-0.002-7-3.492c0.001 0.001-0.002-0.001-0.004-0.003l-0.004-0.002c-0.552-0.271-1.146-0.4-1.737-0.385zM12.253 5.591l6.987 3.487c0.002 0.001 0.004-0.001 0.005 0l0.003 0.003c1.117 0.566 2.394 0.515 3.461-0.091l3.133-1.786c0.001-0.001 0.002-0.002 0.003-0.003l-0 0c0.887-0.508 1.468-0.464 1.815-0.263s0.674 0.686 0.674 1.716v12.974c0 0.373-0.514 1.257-0.846 1.453l-5.768 3.302c-0.282 0.16-1.277 0.191-1.586 0.039l-6.984-3.5c-1.119-0.57-2.399-0.519-3.469 0.089-0 0-0.001 0-0.001 0s-0.001 0-0.001 0h0l-3.133 1.786c-0.001 0.001-0.002 0.002-0.002 0.002l-0 0c-0.887 0.508-1.466 0.464-1.813 0.263s-0.674-0.686-0.674-1.716v-12.974c0-0.364 0.502-1.244 0.841-1.438l5.771-3.305c0.282-0.16 1.277-0.191 1.586-0.039z"></path>
<path d="M11.414 4.333c-0.552 0-1 0.448-1 1v0 17.333c0 0.552 0.448 1 1 1v0c0.552 0 1-0.448 1-1v0-17.333c0-0.552-0.448-1-1-1v0z"></path>
<path d="M20.974 7.826c-0.552 0-1 0.448-1 1v0 17.841c0 0.552 0.448 1 1 1v0c0.552 0 1-0.448 1-1v0-17.841c0-0.552-0.448-1-1-1v0z"></path>
</symbol>
<symbol id="icon-call" viewBox="0 0 32 32">
<path d="M7.453 1.667c-1.262 0-2.469 0.559-3.464 1.534-0.799 0.756-1.397 1.626-1.771 2.576-0 0.001 0 0.002 0 0.003-0.369 0.924-0.552 1.917-0.552 2.94 0 1.54 0.357 3.13 1.039 4.75v0.003c0.674 1.588 1.592 3.17 2.721 4.74l0.005 0.005c1.137 1.562 2.41 3.053 3.818 4.474l0.003 0.003 0.003 0.005c1.421 1.407 2.915 2.681 4.49 3.831 1.575 1.147 3.174 2.067 4.784 2.753 1.635 0.697 3.22 1.052 4.737 1.052 1.056 0 2.059-0.199 2.982-0.583h0.003c0.957-0.393 1.808-1.014 2.544-1.826 0.454-0.501 0.805-1.043 1.070-1.604 0.288-0.61 0.43-1.252 0.43-1.88 0-0.516-0.119-0.993-0.286-1.411l-0.005-0.016-0.008-0.016c-0.224-0.509-0.606-0.942-1.070-1.266l-0.003-0.003-4.427-3.143c-0.373-0.254-0.738-0.462-1.117-0.617-0.394-0.161-0.796-0.25-1.19-0.25-0.511 0-1.012 0.164-1.44 0.419-0.424 0.227-0.804 0.53-1.174 0.901l-0.917 0.906c-0.015-0.007-0.032-0.013-0.049-0.021-0.355-0.189-0.88-0.548-1.534-1.102v0.003c-0.675-0.573-1.346-1.206-2.052-1.898l-0.005-0.005c-0.003-0.003-0.005-0.005-0.008-0.008-0.667-0.681-1.286-1.365-1.87-2.039l-0.008-0.010c-0.548-0.649-0.922-1.178-1.107-1.513-0.006-0.013-0.011-0.031-0.016-0.042l0.927-0.964-0.016 0.013c0.364-0.364 0.67-0.741 0.901-1.146 0.266-0.441 0.419-0.943 0.419-1.453 0-0.428-0.107-0.828-0.268-1.206-0.155-0.375-0.367-0.745-0.641-1.125l-3.086-4.352c-0.343-0.492-0.804-0.851-1.289-1.076-0.476-0.227-0.99-0.336-1.503-0.336zM7.453 3.667c0.23 0 0.46 0.050 0.648 0.141l0.005 0.005 0.008 0.003c0.205 0.095 0.354 0.21 0.49 0.406l0.003 0.005 3.102 4.37c0.203 0.283 0.335 0.522 0.419 0.729l0.003 0.008 0.005 0.008c0.078 0.181 0.104 0.341 0.104 0.419 0 0.126-0.030 0.258-0.133 0.427l-0.010 0.013-0.008 0.013c-0.115 0.203-0.312 0.461-0.583 0.732l-0.005 0.008-1.008 1.047c-0.318 0.318-0.505 0.818-0.505 1.24 0 0.19 0.029 0.386 0.070 0.549l0.013 0.055 0.021 0.055c0.059 0.158 0.099 0.247 0.094 0.232l0.029 0.083 0.042 0.078c0.296 0.543 0.742 1.151 1.354 1.875l0.005 0.003 0.003 0.005c0.61 0.705 1.265 1.429 1.977 2.154l0.013 0.013c0.729 0.716 1.438 1.385 2.172 2.008h0.003c0.73 0.617 1.347 1.057 1.898 1.349l0.047 0.023 0.049 0.021c0.003 0.001 0.091 0.043 0.216 0.096l0.021 0.010 0.023 0.008c0.243 0.091 0.488 0.117 0.682 0.117 0.462 0 0.959-0.224 1.255-0.521l1.013-1c0.286-0.286 0.54-0.476 0.716-0.568l0.029-0.013 0.029-0.018c0.18-0.11 0.28-0.135 0.427-0.135 0.113 0 0.242 0.020 0.435 0.099 0.207 0.085 0.454 0.222 0.747 0.422l4.409 3.13c0.22 0.152 0.31 0.272 0.378 0.422 0.093 0.237 0.138 0.425 0.138 0.648 0 0.332-0.074 0.676-0.24 1.026-0.188 0.399-0.423 0.763-0.742 1.115-0.569 0.627-1.158 1.047-1.826 1.32l-0.003 0.003h-0.003c-0.677 0.282-1.407 0.43-2.216 0.43-1.203 0-2.521-0.283-3.953-0.893-1.457-0.621-2.925-1.462-4.391-2.529-1.492-1.090-2.906-2.296-4.258-3.635-1.336-1.349-2.538-2.76-3.612-4.234l-0.003-0.003c-1.056-1.468-1.895-2.922-2.5-4.346-0.598-1.42-0.883-2.741-0.883-3.974 0-0.789 0.139-1.525 0.409-2.201v-0.003l0.003-0.003c0.265-0.673 0.68-1.29 1.289-1.865l0.016-0.016c0.71-0.699 1.363-0.966 2.070-0.966z"></path>
</symbol>
<symbol id="icon-facebook" viewBox="0 0 32 32">
<path d="M18.667 12.4v3.867h3.467c0.267 0 0.4 0.267 0.4 0.533l-0.533 2.533c0 0.133-0.267 0.267-0.4 0.267h-2.933v9.733h-4v-9.6h-2.267c-0.267 0-0.4-0.133-0.4-0.4v-2.533c0-0.267 0.133-0.4 0.4-0.4h2.267v-4.4c0-2.267 1.733-4 4-4h3.6c0.267 0 0.4 0.133 0.4 0.4v3.2c0 0.267-0.133 0.4-0.4 0.4h-3.2c-0.267 0-0.4 0.133-0.4 0.4z"></path>
<path d="M12 1.667c-3.467 0-6.113 0.696-7.875 2.458s-2.458 4.408-2.458 7.875v8c0 3.467 0.696 6.113 2.458 7.875s4.408 2.458 7.875 2.458h8c3.467 0 6.113-0.696 7.875-2.458s2.458-4.408 2.458-7.875v-8c0-3.467-0.696-6.113-2.458-7.875s-4.408-2.458-7.875-2.458zM12 3.667h8c3.2 0 5.22 0.637 6.458 1.875s1.875 3.258 1.875 6.458v8c0 3.2-0.637 5.22-1.875 6.458s-3.258 1.875-6.458 1.875h-8c-3.2 0-5.22-0.637-6.458-1.875s-1.875-3.258-1.875-6.458v-8c0-3.2 0.637-5.22 1.875-6.458s3.258-1.875 6.458-1.875z"></path>
</symbol>
<symbol id="icon-instagram" viewBox="0 0 32 32">
<path d="M12 1.667c-3.467 0-6.113 0.696-7.875 2.458s-2.458 4.408-2.458 7.875v8c0 3.467 0.696 6.113 2.458 7.875s4.408 2.458 7.875 2.458h8c3.467 0 6.113-0.696 7.875-2.458s2.458-4.408 2.458-7.875v-8c0-3.467-0.696-6.113-2.458-7.875s-4.408-2.458-7.875-2.458zM12 3.667h8c3.2 0 5.22 0.637 6.458 1.875s1.875 3.258 1.875 6.458v8c0 3.2-0.637 5.22-1.875 6.458s-3.258 1.875-6.458 1.875h-8c-3.2 0-5.22-0.637-6.458-1.875s-1.875-3.258-1.875-6.458v-8c0-3.2 0.637-5.22 1.875-6.458s3.258-1.875 6.458-1.875z"></path>
<path d="M16 10.333c-3.118 0-5.667 2.549-5.667 5.667s2.549 5.667 5.667 5.667c3.118 0 5.667-2.549 5.667-5.667s-2.549-5.667-5.667-5.667zM16 12.333c2.037 0 3.667 1.63 3.667 3.667s-1.63 3.667-3.667 3.667c-2.037 0-3.667-1.63-3.667-3.667s1.63-3.667 3.667-3.667z"></path>
<path d="M23.516 8c-0.736 0-1.333 0.597-1.333 1.333v0c0 0.736 0.597 1.333 1.333 1.333v0h0.016c0.736 0 1.333-0.597 1.333-1.333v0c0-0.736-0.597-1.333-1.333-1.333v0z"></path>
</symbol>
<symbol id="icon-sms" viewBox="0 0 32 32">
<path d="M9.333 3.667c-2.167 0-4.111 0.55-5.513 1.852s-2.154 3.291-2.154 5.815v9.333c0 2.524 0.751 4.513 2.154 5.815s3.346 1.852 5.513 1.852h13.333c2.167 0 4.111-0.549 5.513-1.852s2.154-3.291 2.154-5.815v-9.333c0-2.524-0.751-4.513-2.154-5.815s-3.346-1.852-5.513-1.852zM9.333 5.667h13.333c1.833 0 3.223 0.45 4.154 1.315s1.513 2.209 1.513 4.352v9.333c0 2.143-0.582 3.487-1.513 4.352s-2.32 1.315-4.154 1.315h-13.333c-1.833 0-3.223-0.451-4.154-1.315s-1.513-2.209-1.513-4.352v-9.333c0-2.143 0.582-3.487 1.513-4.352s2.32-1.315 4.154-1.315z"></path>
<path d="M9.224 11.005c-0.273 0.031-0.509 0.168-0.67 0.368l-0.002 0.002c-0.137 0.17-0.219 0.388-0.219 0.625 0 0.315 0.146 0.596 0.374 0.78l0.002 0.002 4.159 3.333c0 0 0.001 0 0.001 0s0.001 0 0.001 0h-0c1.79 1.425 4.457 1.425 6.247 0l4.174-3.333c0.23-0.185 0.376-0.466 0.376-0.781 0-0.237-0.083-0.456-0.221-0.627l0.002 0.002c-0.185-0.23-0.466-0.376-0.781-0.376-0.237 0-0.456 0.083-0.627 0.221l0.002-0.002-4.172 3.333c-0.956 0.761-2.793 0.76-3.75 0h-0.003l-4.159-3.333c-0.17-0.137-0.388-0.22-0.625-0.22-0.038 0-0.076 0.002-0.114 0.006l0.005-0z"></path>
</symbol>
<symbol id="icon-arrow-right" viewBox="0 0 32 32">
<path d="M18.769 7.434c-0.121 0.121-0.195 0.287-0.195 0.471s0.075 0.351 0.195 0.471l7.622 7.622-7.622 7.622c-0.121 0.121-0.195 0.287-0.195 0.471s0.075 0.351 0.195 0.471v0c0.121 0.121 0.287 0.195 0.471 0.195s0.351-0.075 0.471-0.195l8.094-8.092c0.121-0.121 0.195-0.287 0.195-0.471s-0.075-0.351-0.195-0.471l-8.094-8.094c-0.121-0.121-0.287-0.195-0.471-0.195s-0.351 0.075-0.471 0.195v0z"></path>
<path d="M4.668 15.332c-0.368 0-0.667 0.298-0.667 0.667v0c0 0.368 0.298 0.667 0.667 0.667v0h22.439c0.368 0 0.667-0.298 0.667-0.667v0c0-0.368-0.298-0.667-0.667-0.667v0z"></path>
</symbol>
</defs>
</svg>
