<svg xmlns="http://www.w3.org/2000/svg" aria-hidden="true" style="position:absolute;width:0;height:0;overflow:hidden"><defs><symbol id="icon-map" viewBox="0 0 32 32"><path d="M11.396 3.409a3.642 3.642 0 0 0-1.716.482l-.003.003-5.773 3.305a3.636 3.636 0 0 0-1.849 3.174v12.974c0 1.503.569 2.807 1.669 3.445s2.513.487 3.813-.258v.003l3.13-1.787c.291-.165 1.278-.197 1.573-.047l.005.005 7 3.505.004.003.004.002a3.665 3.665 0 0 0 3.456-.096l.003-.003 5.773-3.305.005-.005a3.668 3.668 0 0 0 1.844-3.182V8.653c0-1.503-.572-2.807-1.672-3.445s-2.513-.487-3.813.258l-3.13 1.784c-.291.165-1.276.197-1.57.047l-.004-.003-.004-.002-7-3.492-.004-.003-.004-.002a3.722 3.722 0 0 0-1.737-.385zm.857 2.182 6.987 3.487h.005l.003.003a3.626 3.626 0 0 0 3.461-.091l3.133-1.786.003-.003c.887-.508 1.468-.464 1.815-.263s.674.686.674 1.716v12.974c0 .373-.514 1.257-.846 1.453l-5.768 3.302c-.282.16-1.277.191-1.586.039l-6.984-3.5a3.626 3.626 0 0 0-3.469.089h-.002l-3.133 1.786-.002.002c-.887.508-1.466.464-1.813.263s-.674-.686-.674-1.716V10.372c0-.364.502-1.244.841-1.438l5.771-3.305c.282-.16 1.277-.191 1.586-.039z"/><path d="M11.414 4.333a1 1 0 0 0-1 1v17.333a1 1 0 0 0 2 0V5.333a1 1 0 0 0-1-1zM20.974 7.826a1 1 0 0 0-1 1v17.841a1 1 0 0 0 2 0V8.826a1 1 0 0 0-1-1z"/></symbol><symbol id="icon-call" viewBox="0 0 32 32"><path d="M7.453 1.667c-1.262 0-2.469.559-3.464 1.534-.799.756-1.397 1.626-1.771 2.576v.003a7.901 7.901 0 0 0-.552 2.94c0 1.54.357 3.13 1.039 4.75v.003c.674 1.588 1.592 3.17 2.721 4.74l.005.005a38.791 38.791 0 0 0 3.818 4.474l.003.003.003.005a39.356 39.356 0 0 0 4.49 3.831c1.575 1.147 3.174 2.067 4.784 2.753 1.635.697 3.22 1.052 4.737 1.052a7.722 7.722 0 0 0 2.982-.583h.003c.957-.393 1.808-1.014 2.544-1.826a6.537 6.537 0 0 0 1.07-1.604c.288-.61.43-1.252.43-1.88 0-.516-.119-.993-.286-1.411l-.005-.016-.008-.016a3.082 3.082 0 0 0-1.07-1.266l-.003-.003-4.427-3.143a6.074 6.074 0 0 0-1.117-.617 3.156 3.156 0 0 0-1.19-.25c-.511 0-1.012.164-1.44.419-.424.227-.804.53-1.174.901l-.917.906-.049-.021c-.355-.189-.88-.548-1.534-1.102v.003a39.258 39.258 0 0 1-2.052-1.898l-.005-.005-.008-.008a45.206 45.206 0 0 1-1.87-2.039l-.008-.01c-.548-.649-.922-1.178-1.107-1.513l-.016-.042.927-.964-.016.013c.364-.364.67-.741.901-1.146.266-.441.419-.943.419-1.453a3.06 3.06 0 0 0-.268-1.206 5.549 5.549 0 0 0-.641-1.125l-3.086-4.352a3.228 3.228 0 0 0-1.289-1.076 3.486 3.486 0 0 0-1.503-.336zm0 2c.23 0 .46.05.648.141l.005.005.008.003c.205.095.354.21.49.406l.003.005 3.102 4.37c.203.283.335.522.419.729l.003.008.005.008c.078.181.104.341.104.419 0 .126-.03.258-.133.427l-.01.013-.008.013a3.626 3.626 0 0 1-.583.732l-.005.008-1.008 1.047a1.853 1.853 0 0 0-.505 1.24c0 .19.029.386.07.549l.013.055.021.055c.059.158.099.247.094.232l.029.083.042.078c.296.543.742 1.151 1.354 1.875l.005.003.003.005a46.23 46.23 0 0 0 1.977 2.154l.013.013a40.691 40.691 0 0 0 2.172 2.008h.003c.73.617 1.347 1.057 1.898 1.349l.047.023.049.021c.003.001.091.043.216.096l.021.01.023.008c.243.091.488.117.682.117.462 0 .959-.224 1.255-.521l1.013-1c.286-.286.54-.476.716-.568l.029-.013.029-.018c.18-.11.28-.135.427-.135.113 0 .242.02.435.099.207.085.454.222.747.422l4.409 3.13c.22.152.31.272.378.422.093.237.138.425.138.648 0 .332-.074.676-.24 1.026a4.45 4.45 0 0 1-.742 1.115c-.569.627-1.158 1.047-1.826 1.32l-.003.003h-.003a5.678 5.678 0 0 1-2.216.43c-1.203 0-2.521-.283-3.953-.893-1.457-.621-2.925-1.462-4.391-2.529a37.328 37.328 0 0 1-4.258-3.635 36.863 36.863 0 0 1-3.612-4.234l-.003-.003c-1.056-1.468-1.895-2.922-2.5-4.346-.598-1.42-.883-2.741-.883-3.974 0-.789.139-1.525.409-2.201v-.003l.003-.003c.265-.673.68-1.29 1.289-1.865l.016-.016c.71-.699 1.363-.966 2.07-.966z"/></symbol><symbol id="icon-facebook" viewBox="0 0 32 32"><path d="M18.667 12.4v3.867h3.467c.267 0 .4.267.4.533l-.533 2.533c0 .133-.267.267-.4.267h-2.933v9.733h-4v-9.6h-2.267c-.267 0-.4-.133-.4-.4V16.8c0-.267.133-.4.4-.4h2.267V12c0-2.267 1.733-4 4-4h3.6c.267 0 .4.133.4.4v3.2c0 .267-.133.4-.4.4h-3.2c-.267 0-.4.133-.4.4z"/><path d="M12 1.667c-3.467 0-6.113.696-7.875 2.458S1.667 8.533 1.667 12v8c0 3.467.696 6.113 2.458 7.875S8.533 30.333 12 30.333h8c3.467 0 6.113-.696 7.875-2.458s2.458-4.408 2.458-7.875v-8c0-3.467-.696-6.113-2.458-7.875S23.467 1.667 20 1.667zm0 2h8c3.2 0 5.22.637 6.458 1.875S28.333 8.8 28.333 12v8c0 3.2-.637 5.22-1.875 6.458S23.2 28.333 20 28.333h-8c-3.2 0-5.22-.637-6.458-1.875S3.667 23.2 3.667 20v-8c0-3.2.637-5.22 1.875-6.458S8.8 3.667 12 3.667z"/></symbol><symbol id="icon-instagram" viewBox="0 0 32 32"><path d="M12 1.667c-3.467 0-6.113.696-7.875 2.458S1.667 8.533 1.667 12v8c0 3.467.696 6.113 2.458 7.875S8.533 30.333 12 30.333h8c3.467 0 6.113-.696 7.875-2.458s2.458-4.408 2.458-7.875v-8c0-3.467-.696-6.113-2.458-7.875S23.467 1.667 20 1.667zm0 2h8c3.2 0 5.22.637 6.458 1.875S28.333 8.8 28.333 12v8c0 3.2-.637 5.22-1.875 6.458S23.2 28.333 20 28.333h-8c-3.2 0-5.22-.637-6.458-1.875S3.667 23.2 3.667 20v-8c0-3.2.637-5.22 1.875-6.458S8.8 3.667 12 3.667z"/><path d="M16 10.333c-3.118 0-5.667 2.549-5.667 5.667s2.549 5.667 5.667 5.667 5.667-2.549 5.667-5.667-2.549-5.667-5.667-5.667zm0 2c2.037 0 3.667 1.63 3.667 3.667s-1.63 3.667-3.667 3.667-3.667-1.63-3.667-3.667 1.63-3.667 3.667-3.667zM23.516 8a1.333 1.333 0 0 0 0 2.666h.016a1.333 1.333 0 0 0 0-2.666z"/></symbol><symbol id="icon-sms" viewBox="0 0 32 32"><path d="M9.333 3.667c-2.167 0-4.111.55-5.513 1.852S1.666 8.81 1.666 11.334v9.333c0 2.524.751 4.513 2.154 5.815s3.346 1.852 5.513 1.852h13.333c2.167 0 4.111-.549 5.513-1.852s2.154-3.291 2.154-5.815v-9.333c0-2.524-.751-4.513-2.154-5.815s-3.346-1.852-5.513-1.852zm0 2h13.333c1.833 0 3.223.45 4.154 1.315s1.513 2.209 1.513 4.352v9.333c0 2.143-.582 3.487-1.513 4.352s-2.32 1.315-4.154 1.315H9.333c-1.833 0-3.223-.451-4.154-1.315s-1.513-2.209-1.513-4.352v-9.333c0-2.143.582-3.487 1.513-4.352s2.32-1.315 4.154-1.315z"/><path d="M9.224 11.005a1.002 1.002 0 0 0-.67.368l-.002.002a1 1 0 0 0 .155 1.405l.002.002 4.159 3.333h.002c1.79 1.425 4.457 1.425 6.247 0l4.174-3.333a1 1 0 0 0 .155-1.408l.002.002a1 1 0 0 0-1.408-.155l.002-.002-4.172 3.333c-.956.761-2.793.76-3.75 0h-.003l-4.159-3.333a.994.994 0 0 0-.739-.214h.005z"/></symbol><symbol id="icon-arrow-right" viewBox="0 0 32 32"><path d="M18.769 7.434a.663.663 0 0 0 0 .942l7.622 7.622-7.622 7.622a.663.663 0 0 0 0 .942.663.663 0 0 0 .942 0l8.094-8.092a.663.663 0 0 0 0-.942l-8.094-8.094a.663.663 0 0 0-.942 0z"/><path d="M4.668 15.332a.667.667 0 1 0 0 1.334h22.439a.667.667 0 1 0 0-1.334z"/></symbol></defs></svg>